<?xml version="1.0" encoding="UTF-8" standalone="no"?>
<svg
   xmlns:dc="http://purl.org/dc/elements/1.1/"
   xmlns:cc="http://creativecommons.org/ns#"
   xmlns:rdf="http://www.w3.org/1999/02/22-rdf-syntax-ns#"
   xmlns:svg="http://www.w3.org/2000/svg"
   xmlns="http://www.w3.org/2000/svg"
   xmlns:sodipodi="http://sodipodi.sourceforge.net/DTD/sodipodi-0.dtd"
   xmlns:inkscape="http://www.inkscape.org/namespaces/inkscape"
   width="32.214298"
   height="36"
   viewBox="0 0 32.214298 36"
   fill="none"
   version="1.1"
   id="svg111"
   sodipodi:docname="3.svg"
   inkscape:version="1.0.2-2 (e86c870879, 2021-01-15)">
  <metadata
     id="metadata117">
    <rdf:RDF>
      <cc:Work
         rdf:about="">
        <dc:format>image/svg+xml</dc:format>
        <dc:type
           rdf:resource="http://purl.org/dc/dcmitype/StillImage" />
      </cc:Work>
    </rdf:RDF>
  </metadata>
  <defs
     id="defs115" />
  <sodipodi:namedview
     pagecolor="#ffffff"
     bordercolor="#666666"
     borderopacity="1"
     objecttolerance="10"
     gridtolerance="10"
     guidetolerance="10"
     inkscape:pageopacity="0"
     inkscape:pageshadow="2"
     inkscape:window-width="1513"
     inkscape:window-height="750"
     id="namedview113"
     showgrid="false"
     inkscape:object-paths="false"
     inkscape:zoom="6.7817969"
     inkscape:cx="85.467383"
     inkscape:cy="11.257084"
     inkscape:window-x="0"
     inkscape:window-y="0"
     inkscape:window-maximized="0"
     inkscape:current-layer="svg111" />
  <path
     fill-rule="evenodd"
     clip-rule="evenodd"
     d="m 32.2143,15.1304 c 0,0.6637 -0.0455,1.3174 -0.1337,1.9585 L 32.0829,17.087 C 30.6163,27.9391 20.7774,34.4783 16.1067,36 V 30.2609 C 7.21119,30.2607 0,23.4866 0,15.1304 0,6.77413 7.21141,0 16.1071,0 25.0029,0 32.2143,6.77413 32.2143,15.1304 Z M 6.9409,11.087 H 17.548 c 1.1572,0 2.0953,0.9343 2.0953,2.0869 v 0.6522 c 0,1.7289 1.4071,3.1304 3.1428,3.1304 h 0.6548 c 0.5786,0 1.0476,0.4672 1.0476,1.0435 v 2.3478 h 1.5714 V 18 c 0,-1.4407 -1.1726,-2.6087 -2.619,-2.6087 h -0.6548 c -0.8679,0 -1.5714,-0.7007 -1.5714,-1.5652 v -0.6522 c 0,-2.017 -1.6416,-3.65214 -3.6667,-3.65214 H 6.41709 Z m 1.57097,3.2608 h 6.67853 v 1.5653 H 9.03568 Z m 6.67883,4.6957 h -4.8452 l 0.5238,1.5652 h 4.3214 z m 6.2854,1.6956 c 0,0.9365 -0.7622,1.6957 -1.7024,1.6957 -0.9402,0 -1.7024,-0.7592 -1.7024,-1.6957 0,-0.9365 0.7622,-1.6956 1.7024,-1.6956 0.9402,0 1.7024,0.7591 1.7024,1.6956 z"
     fill="#000000"
     id="path109"
     sodipodi:nodetypes="sccccssscssssssccssssssccccccccccccsssss" />
</svg>
