<svg width="20" height="20" viewBox="0 0 20 20" fill="none" xmlns="http://www.w3.org/2000/svg">
<path fill-rule="evenodd" clip-rule="evenodd" d="M14.8688 13.4573C17.3126 10.3188 17.0918 5.77813 14.2067 2.89295C11.0825 -0.231244 6.01714 -0.231244 2.89295 2.89295C-0.231244 6.01714 -0.231244 11.0825 2.89295 14.2067C5.77813 17.0918 10.3188 17.3126 13.4573 14.8688C13.4708 14.8841 13.4849 14.8991 13.4996 14.9138L17.7422 19.1564C18.1327 19.5469 18.7659 19.5469 19.1564 19.1564C19.5469 18.7659 19.5469 18.1327 19.1564 17.7422L14.9138 13.4996C14.8991 13.4849 14.8841 13.4708 14.8688 13.4573ZM12.7924 4.30716C15.1356 6.65031 15.1356 10.4493 12.7924 12.7924C10.4493 15.1356 6.65031 15.1356 4.30716 12.7924C1.96402 10.4493 1.96402 6.65031 4.30716 4.30716C6.65031 1.96402 10.4493 1.96402 12.7924 4.30716Z" fill="#1672EC"/>
</svg>
